<?xml version="1.0" standalone="no"?>
<!DOCTYPE svg PUBLIC "-//W3C//DTD SVG 20010904//EN"
 "http://www.w3.org/TR/2001/REC-SVG-20010904/DTD/svg10.dtd">
<svg version="1.0" xmlns="http://www.w3.org/2000/svg"
 width="35.000000pt" height="35.000000pt" viewBox="0 0 35.000000 35.000000"
 preserveAspectRatio="xMidYMid meet">
<metadata>
Created by potrace 1.10, written by Peter Selinger 2001-2011
</metadata>
<g transform="translate(0.000000,35.000000) scale(0.100000,-0.100000)"
fill="#000000" stroke="none">
<path d="M70 313 c0 -5 7 -16 14 -26 13 -16 11 -23 -10 -54 -34 -50 -29 -123
9 -129 15 -2 17 8 17 72 0 48 4 73 10 69 15 -9 12 13 -6 40 -16 25 -16 25 14
25 27 0 32 -4 37 -34 4 -18 5 -67 3 -109 -2 -45 1 -78 7 -80 6 -2 31 -3 58 -3
46 2 52 -4 39 -34 -5 -12 -18 -14 -57 -9 -27 3 -44 7 -37 7 7 1 10 7 7 12 -3
6 -18 7 -33 4 -19 -4 -23 -3 -13 4 7 5 11 16 9 23 -3 9 -11 2 -22 -19 -20 -39
-22 -40 -22 -5 1 18 -4 28 -14 28 -18 0 -40 41 -40 76 0 14 11 43 25 63 13 20
20 36 15 36 -20 0 -50 -65 -50 -107 0 -30 7 -50 26 -72 17 -21 23 -37 19 -51
-6 -19 -2 -20 93 -20 l100 0 17 47 c26 72 29 125 10 162 -18 36 -69 71 -102
71 -13 0 -23 5 -23 10 0 6 -22 10 -50 10 -27 0 -50 -3 -50 -7z m161 -38 c58
-31 87 -116 55 -161 -13 -17 -13 -14 -3 23 15 56 -7 104 -60 132 -21 11 -34
20 -30 21 4 0 21 -7 38 -15z m35 -97 c6 -32 4 -36 -20 -42 -15 -4 -24 -11 -21
-16 3 -5 13 -6 22 -3 11 4 14 3 9 -5 -4 -7 -26 -12 -49 -12 -31 0 -38 3 -27
10 10 6 11 10 3 10 -7 0 -13 9 -13 20 0 11 5 20 11 20 8 0 8 4 0 14 -12 14 -5
46 9 46 11 0 24 -31 21 -50 -2 -12 0 -13 10 -2 10 9 10 15 2 23 -6 6 -9 18 -6
25 3 8 -1 14 -10 14 -9 0 -19 5 -23 11 -4 8 1 9 16 4 17 -5 21 -4 15 6 -4 8 4
3 19 -12 15 -14 29 -41 32 -61z m-183 -45 c-5 -14 -8 -13 -14 5 -5 12 -5 29
-2 39 5 14 8 13 14 -5 5 -12 5 -29 2 -39z"/>
</g>
</svg>
